<mxfile host="app.diagrams.net" agent="Mozilla/5.0 (Windows NT 10.0; Win64; x64) AppleWebKit/537.36 (KHTML, like Gecko) Chrome/130.0.0.0 Safari/537.36" version="24.8.4">
  <diagram name="第 1 页" id="EwWbmp2Tch0iifEVa1fz">
    <mxGraphModel dx="1877" dy="618" grid="1" gridSize="10" guides="1" tooltips="1" connect="1" arrows="1" fold="1" page="1" pageScale="1" pageWidth="827" pageHeight="1169" math="0" shadow="0">
      <root>
        <mxCell id="0" />
        <mxCell id="1" parent="0" />
        <mxCell id="eyaxVFTmtFAMvZmxrLhP-3" value="" style="edgeStyle=orthogonalEdgeStyle;rounded=0;orthogonalLoop=1;jettySize=auto;html=1;" edge="1" parent="1" source="eyaxVFTmtFAMvZmxrLhP-1" target="eyaxVFTmtFAMvZmxrLhP-2">
          <mxGeometry relative="1" as="geometry" />
        </mxCell>
        <mxCell id="eyaxVFTmtFAMvZmxrLhP-1" value="发起导出请求" style="rounded=0;whiteSpace=wrap;html=1;" vertex="1" parent="1">
          <mxGeometry x="150" y="80" width="120" height="60" as="geometry" />
        </mxCell>
        <mxCell id="eyaxVFTmtFAMvZmxrLhP-5" value="" style="edgeStyle=orthogonalEdgeStyle;rounded=0;orthogonalLoop=1;jettySize=auto;html=1;" edge="1" parent="1" source="eyaxVFTmtFAMvZmxrLhP-2" target="eyaxVFTmtFAMvZmxrLhP-4">
          <mxGeometry relative="1" as="geometry" />
        </mxCell>
        <mxCell id="eyaxVFTmtFAMvZmxrLhP-6" value="校验失败" style="edgeLabel;html=1;align=center;verticalAlign=middle;resizable=0;points=[];" vertex="1" connectable="0" parent="eyaxVFTmtFAMvZmxrLhP-5">
          <mxGeometry x="0.095" y="2" relative="1" as="geometry">
            <mxPoint as="offset" />
          </mxGeometry>
        </mxCell>
        <mxCell id="eyaxVFTmtFAMvZmxrLhP-8" value="" style="edgeStyle=orthogonalEdgeStyle;rounded=0;orthogonalLoop=1;jettySize=auto;html=1;" edge="1" parent="1" source="eyaxVFTmtFAMvZmxrLhP-2" target="eyaxVFTmtFAMvZmxrLhP-7">
          <mxGeometry relative="1" as="geometry" />
        </mxCell>
        <mxCell id="eyaxVFTmtFAMvZmxrLhP-2" value="校验请求数据" style="whiteSpace=wrap;html=1;rounded=0;" vertex="1" parent="1">
          <mxGeometry x="150" y="220" width="120" height="60" as="geometry" />
        </mxCell>
        <mxCell id="eyaxVFTmtFAMvZmxrLhP-4" value="返回错误信息" style="whiteSpace=wrap;html=1;rounded=0;" vertex="1" parent="1">
          <mxGeometry x="-50" y="220" width="120" height="60" as="geometry" />
        </mxCell>
        <mxCell id="eyaxVFTmtFAMvZmxrLhP-13" value="" style="edgeStyle=orthogonalEdgeStyle;rounded=0;orthogonalLoop=1;jettySize=auto;html=1;" edge="1" parent="1" source="eyaxVFTmtFAMvZmxrLhP-7" target="eyaxVFTmtFAMvZmxrLhP-12">
          <mxGeometry relative="1" as="geometry" />
        </mxCell>
        <mxCell id="eyaxVFTmtFAMvZmxrLhP-7" value="保存任务信息" style="whiteSpace=wrap;html=1;rounded=0;" vertex="1" parent="1">
          <mxGeometry x="360" y="220" width="120" height="60" as="geometry" />
        </mxCell>
        <mxCell id="eyaxVFTmtFAMvZmxrLhP-9" value="返回成功" style="whiteSpace=wrap;html=1;rounded=0;" vertex="1" parent="1">
          <mxGeometry x="360" y="480" width="120" height="60" as="geometry" />
        </mxCell>
        <mxCell id="eyaxVFTmtFAMvZmxrLhP-14" value="" style="edgeStyle=orthogonalEdgeStyle;rounded=0;orthogonalLoop=1;jettySize=auto;html=1;" edge="1" parent="1" source="eyaxVFTmtFAMvZmxrLhP-12" target="eyaxVFTmtFAMvZmxrLhP-9">
          <mxGeometry relative="1" as="geometry" />
        </mxCell>
        <mxCell id="eyaxVFTmtFAMvZmxrLhP-12" value="提交任务异步执行器&lt;div&gt;内部有一个线程池和任务阻塞队列，定时器执行器。&lt;/div&gt;&lt;div&gt;拒绝策略为忽略，定时检查任务队列，如果队列为空。从数据库中查找执行中的任务重新提交。&lt;/div&gt;" style="whiteSpace=wrap;html=1;rounded=0;" vertex="1" parent="1">
          <mxGeometry x="360" y="360" width="120" height="60" as="geometry" />
        </mxCell>
        <mxCell id="eyaxVFTmtFAMvZmxrLhP-19" value="" style="edgeStyle=orthogonalEdgeStyle;rounded=0;orthogonalLoop=1;jettySize=auto;html=1;" edge="1" parent="1" source="eyaxVFTmtFAMvZmxrLhP-17" target="eyaxVFTmtFAMvZmxrLhP-18">
          <mxGeometry relative="1" as="geometry" />
        </mxCell>
        <mxCell id="eyaxVFTmtFAMvZmxrLhP-17" value="执行异步任务" style="rounded=0;whiteSpace=wrap;html=1;" vertex="1" parent="1">
          <mxGeometry x="150" y="380" width="120" height="60" as="geometry" />
        </mxCell>
        <mxCell id="eyaxVFTmtFAMvZmxrLhP-21" value="" style="edgeStyle=orthogonalEdgeStyle;rounded=0;orthogonalLoop=1;jettySize=auto;html=1;" edge="1" parent="1" source="eyaxVFTmtFAMvZmxrLhP-18" target="eyaxVFTmtFAMvZmxrLhP-20">
          <mxGeometry relative="1" as="geometry" />
        </mxCell>
        <mxCell id="eyaxVFTmtFAMvZmxrLhP-24" value="成功" style="edgeLabel;html=1;align=center;verticalAlign=middle;resizable=0;points=[];" vertex="1" connectable="0" parent="eyaxVFTmtFAMvZmxrLhP-21">
          <mxGeometry x="-0.205" y="4" relative="1" as="geometry">
            <mxPoint as="offset" />
          </mxGeometry>
        </mxCell>
        <mxCell id="eyaxVFTmtFAMvZmxrLhP-23" value="" style="edgeStyle=orthogonalEdgeStyle;rounded=0;orthogonalLoop=1;jettySize=auto;html=1;" edge="1" parent="1" source="eyaxVFTmtFAMvZmxrLhP-18" target="eyaxVFTmtFAMvZmxrLhP-22">
          <mxGeometry relative="1" as="geometry" />
        </mxCell>
        <mxCell id="eyaxVFTmtFAMvZmxrLhP-26" value="失败" style="edgeLabel;html=1;align=center;verticalAlign=middle;resizable=0;points=[];" vertex="1" connectable="0" parent="eyaxVFTmtFAMvZmxrLhP-23">
          <mxGeometry x="-0.04" y="1" relative="1" as="geometry">
            <mxPoint as="offset" />
          </mxGeometry>
        </mxCell>
        <mxCell id="eyaxVFTmtFAMvZmxrLhP-18" value="获取条件分页查找数据，写入excel文件。&lt;div&gt;分页查询时只查询id，再查询详细数据防止数据量过大导致慢查询。每个excel文件最大50w数据。超过写入多个文件，将多个文件打包。&lt;/div&gt;" style="whiteSpace=wrap;html=1;rounded=0;" vertex="1" parent="1">
          <mxGeometry x="150" y="520" width="120" height="60" as="geometry" />
        </mxCell>
        <mxCell id="eyaxVFTmtFAMvZmxrLhP-20" value="完成后写入文件地址，修改任务状态为已完成" style="whiteSpace=wrap;html=1;rounded=0;" vertex="1" parent="1">
          <mxGeometry x="150" y="660" width="120" height="60" as="geometry" />
        </mxCell>
        <mxCell id="eyaxVFTmtFAMvZmxrLhP-22" value="任务状态为失败" style="whiteSpace=wrap;html=1;rounded=0;" vertex="1" parent="1">
          <mxGeometry x="-50" y="520" width="120" height="60" as="geometry" />
        </mxCell>
      </root>
    </mxGraphModel>
  </diagram>
</mxfile>
